<svg xmlns="http://www.w3.org/2000/svg" viewBox="0 0 64 64">
  <defs>
    <linearGradient id="rocket-grad" x1="0" y1="0" x2="1" y2="1">
      <stop offset="0%" stop-color="#5ad0ff" />
      <stop offset="100%" stop-color="#7d3cff" />
    </linearGradient>
    <radialGradient id="flare" cx="50%" cy="55%" r="45%">
      <stop offset="0%" stop-color="#ffef7d" />
      <stop offset="100%" stop-color="#ff5d9b" />
    </radialGradient>
  </defs>
  <rect width="64" height="64" rx="16" fill="#060815"/>
  <path d="M33 14c-1.4-2.4-4.8-2.4-6.2 0l-7.4 12.8c-.8 1.4-.6 3.2.5 4.4l2.7 3c-.5 1.4-.6 2.8-.4 4.1l1.5 3.8c.2.6.7 1 1.3 1.1l3.4.4 3.4.4c.7.1 1.3-.2 1.6-.8l1.5-3.8c.2-1.3.1-2.7-.4-4.1l2.7-3c1.1-1.2 1.3-3 .5-4.4L33 14z" fill="url(#rocket-grad)"/>
  <path d="M28.5 21.2a2.5 2.5 0 1 1 4.9 0 2.5 2.5 0 0 1-4.9 0z" fill="#fff" opacity=".85"/>
  <path d="M21 39c-.6 1.5-.6 3.2 0 4.7 1.4 3.6 5.3 6.6 10.5 7.5 5.1-.9 9.1-3.9 10.5-7.5.6-1.5.6-3.2 0-4.7l-4.8-4.9-11.4 4.9-4.8 4.9z" fill="#12b2ff" opacity=".95"/>
  <path d="M30 44l-5 6.5c-.7 1.2-.2 2.7 1 3.4l4 2.2c1.2.7 2.7.2 3.4-1l3.8-5.5-7.2-5.6z" fill="url(#flare)"/>
  <path d="M15 34l7-5 5 6-7 5-5-6z" fill="#5a76ff" opacity=".9" transform="translate(-1 2)"/>
  <path d="M49 34l-7-5-5 6 7 5 5-6z" fill="#7f42ff" opacity=".9" transform="translate(1 2)"/>
</svg>
